<svg width="1600" height="900" viewBox="0 0 1600 900" fill="none" xmlns="http://www.w3.org/2000/svg">
  <rect width="1600" height="900" fill="url(#paint0_linear)"/>
  <g opacity="0.25">
    <path d="M0 640H1600" stroke="#FFFFFF" stroke-width="2" stroke-dasharray="16 20"/>
    <path d="M0 710H1600" stroke="#FFFFFF" stroke-width="1.5" stroke-dasharray="10 18"/>
    <path d="M0 780H1600" stroke="#FFFFFF" stroke-width="1" stroke-dasharray="8 14"/>
  </g>
  <path d="M140 560C280 460 480 420 700 440C840 454 940 520 1080 528C1220 536 1360 504 1520 440" stroke="#FFFFFF" stroke-width="6" opacity="0.35"/>
  <rect x="160" y="300" width="880" height="220" rx="110" fill="url(#paint1_linear)"/>
  <rect x="230" y="320" width="300" height="80" rx="40" fill="#FFFFFF" opacity="0.35"/>
  <rect x="980" y="360" width="140" height="120" rx="60" fill="#000000" opacity="0.6"/>
  <text x="160" y="180" fill="#FFFFFF" font-size="48" font-family="Arial" font-weight="700" letter-spacing="6">FAST FORWARD SPORT</text>
  <text x="160" y="230" fill="#F2E9FF" font-size="20" font-family="Arial" letter-spacing="5">HERO IMAGE PLACEHOLDER</text>
  <defs>
    <linearGradient id="paint0_linear" x1="0" y1="0" x2="1600" y2="900" gradientUnits="userSpaceOnUse">
      <stop stop-color="#120F1A"/>
      <stop offset="0.6" stop-color="#050507"/>
      <stop offset="1" stop-color="#1E1233"/>
    </linearGradient>
    <linearGradient id="paint1_linear" x1="160" y1="300" x2="1040" y2="520" gradientUnits="userSpaceOnUse">
      <stop stop-color="#764E9B"/>
      <stop offset="1" stop-color="#1E1233"/>
    </linearGradient>
  </defs>
</svg>
